<svg xmlns="http://www.w3.org/2000/svg" width="64" height="64" viewBox="0 0 64 64">
  <defs>
    <style>
      .cls-1 {
        fill: #fc632d;
      }

      .cls-2 {
        fill: #fff;
        fill-rule: evenodd;
      }
    </style>
  </defs>
  <rect id="Rectangle_arrondi_2" data-name="Rectangle arrondi 2" class="cls-1" width="64" height="64" rx="3" ry="3"/>
  <path id="Forme_2" data-name="Forme 2" class="cls-2" d="M28.248,32.073a1.63,1.63,0,0,0,.517.091c4.022,0,7.186.582,9.482,1.728a13.747,13.747,0,0,0,8.874-4.067,14.2,14.2,0,0,0,3.922-11.9,16.793,16.793,0,0,0-7.762-2.084H43.235c-0.141,0-.28-0.013-0.423-0.013-0.044,0-.086.01-0.129,0.013H16.3a5.478,5.478,0,0,1-3.17-2.968c-0.893-2.406.529-5.18,0.555-5.231a1.7,1.7,0,0,0-.675-2.282,1.66,1.66,0,0,0-2.262.68A11.345,11.345,0,0,0,9.665,12.8C6.781,9.279,7.41,3.944,7.418,3.88A1.669,1.669,0,1,0,4.11,3.439c-0.038.286-.876,7.068,3.183,11.756a12.1,12.1,0,0,0,7.288,3.939A14.486,14.486,0,0,0,28.248,32.073Zm0.64-3.359a11.11,11.11,0,0,1-10.9-9.307,1.637,1.637,0,0,0,.7-0.191H39.82A11.118,11.118,0,0,1,28.888,28.714ZM28.8,20.82a2.265,2.265,0,1,1-2.239,2.265A2.252,2.252,0,0,1,28.8,20.82Zm12.76,15.952c0.039,0.062.083,0.121,0.12,0.184a8.708,8.708,0,0,1,1.08,4.351,13.216,13.216,0,0,0,9.212-.185A13.408,13.408,0,0,0,60,32.192a18.771,18.771,0,0,0-5.5-11.7A17.58,17.58,0,0,1,49.48,32.212,17.1,17.1,0,0,1,41.561,36.772Zm11.625,7.494a16.5,16.5,0,0,1-10.812.472A24.358,24.358,0,0,1,40.994,49c-1.607-2.237-5.344-4.837-14.064-4.837a1.678,1.678,0,0,0-1.668,1.688c0,3.8,2.964,6.154,5.431,7.452a9.009,9.009,0,0,0-3.473,7.008A1.678,1.678,0,0,0,28.888,62c7.7,0,12.652-4.462,13.254-8.923A18.471,18.471,0,0,0,59.25,40.12,16.727,16.727,0,0,1,53.187,44.266ZM30.886,58.5a7.888,7.888,0,0,1,4.094-3.941,1.694,1.694,0,0,0-.182-3.2c-0.052-.014-4.266-1.226-5.717-3.752,9.008,0.526,9.742,4.33,9.787,4.646C38.824,54.586,36.006,57.815,30.886,58.5Z"/>
</svg>
