<svg id="Groupe_1" data-name="Groupe 1" xmlns="http://www.w3.org/2000/svg" width="1000" height="1000" viewBox="0 0 1000 1000">
  <defs>
    <style>
      .cls-1 {
        fill: #fc632d;
      }

      .cls-2 {
        fill: #fff;
        fill-rule: evenodd;
      }
    </style>
  </defs>
  <circle class="cls-1" cx="500" cy="500" r="500"/>
  <path id="Forme_1" data-name="Forme 1" class="cls-2" d="M720.823,847.364H275.716a23.916,23.916,0,0,1-23.857-23.91V632.942l4.131-4.731,56.566-65.391a22.755,22.755,0,0,1,17.45-8.026H353.78A68.513,68.513,0,0,0,361.91,576h-31.9a2.113,2.113,0,0,0-1.518.676l-50.58,58.463H717.957l-56.144-58.547a2.036,2.036,0,0,0-1.434-.592H632.208A171.9,171.9,0,0,0,654.2,554.878H660.3a22.913,22.913,0,0,1,16.692,7.1l62.972,65.644,4.721,4.816V823.454A23.916,23.916,0,0,1,720.823,847.364Zm2.782-191.885H272.934V823.454a2.81,2.81,0,0,0,2.782,2.788H720.823a2.81,2.81,0,0,0,2.782-2.788H723.52ZM611.064,609.455H385.476a8.444,8.444,0,0,1-2.195-16.594c16.218-.043,40.181-0.027,66.583,0v8.117h49.269v-8.065c47.275,0.043,92.305.04,107.917-.243,0.067-.036.133-0.075,0.2-0.112h3.814A8.449,8.449,0,0,1,611.064,609.455Z"/>
  <path id="Forme_2_copie_3" data-name="Forme 2 copie 3" class="cls-2" d="M532.585,600.978H490.378a29.793,29.793,0,0,0,.9-6.522c-0.394-2.784-6.9-36.213-86.681-40.836,12.841,22.2,50.17,32.851,50.628,32.974a14.83,14.83,0,0,1,10.949,13.494c0.016,0.3.015,0.594,0.014,0.89H413.812c-20.643-11.853-43.055-31.823-43.055-62.72a14.8,14.8,0,0,1,14.776-14.833c77.244,0,110.347,22.848,124.572,42.517,10.047-23.432,26.119-71.733,6.082-105.874-16.4-27.946-54.887-42.117-114.4-42.117a14.509,14.509,0,0,1-4.581-.8C334.236,414.367,283,365.531,276.171,303.439c-26.937-4.726-48.578-16.306-64.551-34.615-35.95-41.207-28.528-100.806-28.193-103.323a14.776,14.776,0,1,1,29.3,3.876c-0.069.564-5.644,47.447,19.9,78.413-5.841-30.185,8.9-58.151,9.61-59.461a14.79,14.79,0,1,1,26.01,14.087c-0.236.455-12.83,24.835-4.92,45.978,4.117,11.011,13.6,19.757,28.074,26.086H525.068c0.384-.025.749-0.114,1.143-0.114,87.395,0,153.3,70.413,153.3,163.788C679.512,522.94,614.947,592.822,532.585,600.978Zm106.179-109.42a95.991,95.991,0,0,1-83.745,14.67c-1.187,24.312-8.157,47.358-14.569,63.763C584.664,561.912,621.245,531.84,638.764,491.558ZM312.579,304.151a14.577,14.577,0,0,1-6.2,1.681c7.861,46.364,48.111,81.8,96.507,81.8,48.973,0,89.671-36.286,96.817-83.481H312.579ZM597.9,327.479a118.585,118.585,0,0,0-68.418-23.357,128.157,128.157,0,0,1-57.218,92.48q27.262,7.52,45.742,21.849a14.759,14.759,0,0,1,2.5-.336,80.225,80.225,0,0,0,54.376-23.684A81.512,81.512,0,0,0,597.9,327.479Zm28.271,29.637a111.062,111.062,0,0,1-30.389,58.289,109.6,109.6,0,0,1-54.031,29.78,96.574,96.574,0,0,1,11.033,29.478,14.329,14.329,0,0,1,4.24.935A67.233,67.233,0,0,0,647,430.4a14.769,14.769,0,0,1,2.429-4.974C647.384,399.558,639.139,376.231,626.175,357.116ZM398.717,354.9a19.6,19.6,0,1,1,19.527-19.6A19.565,19.565,0,0,1,398.717,354.9Z"/>
</svg>
